<?xml version="1.0" encoding="UTF-8" standalone="no"?>
<svg
   width="239.13777"
   height="79.075821"
   viewBox="0 0 239.13777 79.075818"
   version="1.1"
   id="svg19"
   sodipodi:docname="CIE_stacked_mobile_autumn.svg"
   inkscape:version="1.4.2 (ebf0e940, 2025-05-08)"
   xml:space="preserve"
   xmlns:inkscape="http://www.inkscape.org/namespaces/inkscape"
   xmlns:sodipodi="http://sodipodi.sourceforge.net/DTD/sodipodi-0.dtd"
   xmlns="http://www.w3.org/2000/svg"
   xmlns:svg="http://www.w3.org/2000/svg"><defs
     id="defs19"><linearGradient
       id="swatch39"
       inkscape:swatch="solid"><stop
         style="stop-color:#bc302c;stop-opacity:1;"
         offset="0"
         id="stop39" /></linearGradient></defs><sodipodi:namedview
     id="namedview19"
     pagecolor="#ffffff"
     bordercolor="#000000"
     borderopacity="0.25"
     inkscape:showpageshadow="2"
     inkscape:pageopacity="0.0"
     inkscape:pagecheckerboard="0"
     inkscape:deskcolor="#d1d1d1"
     inkscape:zoom="3.3913504"
     inkscape:cx="122.51757"
     inkscape:cy="46.146809"
     inkscape:window-width="1360"
     inkscape:window-height="1186"
     inkscape:window-x="1747"
     inkscape:window-y="45"
     inkscape:window-maximized="0"
     inkscape:current-layer="svg19"><inkscape:page
       x="0"
       y="0"
       width="239.13777"
       height="79.075821"
       id="page49"
       margin="0 6.4870915 13.269053 0"
       bleed="0" /></sodipodi:namedview><text
     fill="#c7eaff"
     font-family="DINPro-Bold, DINPro, Arial, sans-serif"
     font-weight="700"
     id="text9"
     style="fill:#5895a3;fill-opacity:1"
     x="2.4200001"
     y="35.950001"><tspan
       x="2.4200001"
       y="35.950001"
       font-size="42px"
       letter-spacing="0em"
       id="tspan1"
       style="fill:#5895a3;fill-opacity:1">C</tspan><tspan
       x="28.84"
       y="35.950001"
       font-size="42px"
       letter-spacing="0em"
       id="tspan2"
       style="fill:#5895a3;fill-opacity:1">O</tspan><tspan
       x="55.759998"
       y="35.950001"
       font-size="42px"
       letter-spacing="0em"
       id="tspan3"
       style="fill:#5895a3;fill-opacity:1">N</tspan><tspan
       x="85.669998"
       y="35.950001"
       font-size="42px"
       letter-spacing="0em"
       id="tspan4"
       style="fill:#5895a3;fill-opacity:1">T</tspan><tspan
       x="109.68"
       y="35.950001"
       font-size="42px"
       letter-spacing="0.03em"
       id="tspan5"
       style="fill:#5895a3;fill-opacity:1">E</tspan><tspan
       x="136.33"
       y="35.950001"
       font-size="42px"
       letter-spacing="0.03em"
       id="tspan6"
       style="fill:#5895a3;fill-opacity:1">X</tspan><tspan
       x="163.08"
       y="35.950001"
       font-size="42px"
       letter-spacing="0.01em"
       id="tspan7"
       style="fill:#5895a3;fill-opacity:1">T</tspan><tspan
       x="197.73"
       y="35.950001"
       font-size="42px"
       letter-spacing="0em"
       id="tspan8"
       style="fill:#5895a3;fill-opacity:1">I</tspan><tspan
       x="210.77"
       y="35.950001"
       font-size="42px"
       letter-spacing="0.01em"
       id="tspan9"
       style="fill:#5895a3;fill-opacity:1">S</tspan></text><text
     fill="#f4d5c4"
     font-family="DINPro-Bold, DINPro, Arial, sans-serif"
     font-weight="700"
     id="text19"
     x="2.4200001"
     y="35.950001"><tspan
       x="1.17"
       y="71.949997"
       font-size="40px"
       letter-spacing="0.02em"
       id="tspan10">E</tspan><tspan
       x="26.17"
       y="71.949997"
       font-size="40px"
       letter-spacing="0em"
       id="tspan11">V</tspan><tspan
       x="49.609997"
       y="71.949997"
       font-size="40px"
       letter-spacing="-0.01em"
       id="tspan12">E</tspan><tspan
       x="73.25"
       y="71.949997"
       font-size="40px"
       letter-spacing="-0.02em"
       id="tspan13">R</tspan><tspan
       x="98.540001"
       y="71.949997"
       font-size="40px"
       letter-spacing="0.03em"
       id="tspan14">Y</tspan><tspan
       x="122.72"
       y="71.949997"
       font-size="40px"
       letter-spacing="0em"
       id="tspan15">T</tspan><tspan
       x="145.17999"
       y="71.949997"
       font-size="40px"
       letter-spacing="-0.02em"
       id="tspan16">H</tspan><tspan
       x="171.92"
       y="71.949997"
       font-size="40px"
       letter-spacing="-0.02em"
       id="tspan17">I</tspan><tspan
       x="183.41"
       y="71.949997"
       font-size="40px"
       letter-spacing="-0.01em"
       id="tspan18">N</tspan><tspan
       x="211.36"
       y="71.949997"
       font-size="40px"
       letter-spacing="0em"
       id="tspan19">G</tspan></text><path
     style="fill:#000000;stroke-width:0.294868"
     d="M 4.5704508,57.794087 V 43.640433 h 9.2883352 9.288336 v 2.358942 2.358943 H 16.512596 9.878071 v 3.390979 3.39098 h 5.602488 5.602488 v 2.358942 2.358943 H 15.480559 9.878071 v 3.685847 3.685847 h 6.634525 6.634526 v 2.358943 2.358942 H 13.858786 4.5704508 Z"
     id="path20" /><path
     style="fill:#2c89a0;stroke-width:0.294868"
     d="M 4.5704508,57.794087 V 43.640433 h 9.2883352 9.288336 v 2.358942 2.358943 H 16.512596 9.878071 v 3.390979 3.39098 h 5.602488 5.602488 v 2.358942 2.358943 H 15.480559 9.878071 v 3.685847 3.685847 h 6.634525 6.634526 v 2.358943 2.358942 H 13.858786 4.5704508 Z"
     id="path21" /><path
     style="fill:#2c89a0;stroke-width:0.294868"
     d="M 31.281909,58.157501 C 28.753903,50.5587 26.685535,44.183759 26.685535,43.990966 c 0,-0.244599 0.794839,-0.350533 2.630113,-0.350533 h 2.630112 l 0.447589,1.400622 c 0.246174,0.770342 0.986636,3.158771 1.645471,5.30762 3.017493,9.841828 3.619812,11.627274 3.84161,11.387633 0.130506,-0.141005 1.467426,-4.270261 2.970932,-9.176124 l 2.733648,-8.919751 h 2.725747 2.725747 l -1.29085,4.054432 c -0.709967,2.229938 -2.797392,8.565909 -4.638721,14.079937 l -3.347871,10.025505 -1.94039,0.0866 -1.940389,0.0866 z"
     id="path22" /><path
     style="fill:#2c89a0;stroke-width:0.294868"
     d="M 52.928768,57.794087 V 43.640433 h 9.288336 9.288335 v 2.358942 2.358943 h -6.634525 -6.634525 v 3.390979 3.39098 h 5.749922 5.749921 v 2.352575 2.352575 l -5.676204,0.08008 -5.676205,0.08008 v 3.538414 3.538413 l 6.560808,0.07936 6.560808,0.07936 v 2.353301 2.353301 h -9.288335 -9.288336 z"
     id="path23" /><path
     style="fill:#2c89a0;stroke-width:0.294868"
     d="M 76.813059,57.794087 V 43.640433 h 6.286139 c 7.115755,0 8.40205,0.231763 10.59978,1.909855 1.993226,1.521941 3.017671,3.77659 3.017612,6.641311 -6.2e-5,2.997764 -1.031791,4.948311 -3.421329,6.46823 l -1.652168,1.050899 3.05279,5.921864 c 1.679034,3.257025 3.05279,6.010353 3.05279,6.118506 0,0.108154 -1.336738,0.196643 -2.970529,0.196643 H 91.807615 L 89.031546,66.197819 86.255477,60.447897 H 84.188079 82.12068 v 5.749922 5.749922 h -2.65381 -2.653811 z m 12.91821,-2.366501 c 2.382623,-1.452645 2.364956,-5.029925 -0.03206,-6.49147 -0.788223,-0.480608 -1.491428,-0.575776 -4.261268,-0.576696 l -3.317262,-0.0011 v 3.833281 3.833281 l 3.317262,-0.0011 c 2.806961,-9.33e-4 3.467413,-0.09265 4.293327,-0.596192 z"
     id="path24" /><path
     style="fill:#2c89a0;stroke-width:0.294868"
     d="m 107.47931,66.176598 v -5.771144 l -4.29929,-8.38251 -4.299283,-8.382511 2.898663,0.0072 2.89867,0.0072 2.63598,5.74576 c 1.4498,3.160169 2.71995,5.644858 2.82257,5.521533 0.10261,-0.123326 1.30485,-2.708775 2.67163,-5.745442 l 2.48506,-5.521213 2.89715,-0.0076 2.89716,-0.0076 -4.29778,8.375471 -4.29778,8.37547 v 5.778184 5.778183 h -2.50637 -2.50638 z"
     id="path25" /><path
     style="fill:#ba8442;fill-opacity:1;stroke-width:0.294868"
     d="M 131.3636,60.153029 V 48.358318 h -3.68585 -3.68584 v -2.358943 -2.358942 h 10.17293 10.17294 v 2.358942 2.358943 h -3.83328 -3.83328 v 11.794711 11.794712 h -2.65381 -2.65381 z"
     id="path26" /><path
     style="fill:#2c89a0;stroke-width:0.294868"
     d="M 148.7608,57.794087 V 43.640433 h 2.65381 2.65381 v 5.749922 5.749922 h 4.86532 4.86532 v -5.749922 -5.749922 h 2.65381 2.65381 v 14.153654 14.153654 h -2.65381 -2.65381 v -6.04479 -6.044789 h -4.86532 -4.86532 v 6.044789 6.04479 h -2.65381 -2.65381 z"
     id="path27" /><path
     style="fill:#2c89a0;stroke-width:0.294868"
     d="M 175.2989,57.794087 V 43.640433 h 2.65381 2.65381 v 14.153654 14.153654 h -2.65381 -2.65381 z"
     id="path28" /><path
     style="fill:#2c89a0;stroke-width:0.294868"
     d="M 186.79875,57.794087 V 43.640433 l 2.43265,0.0044 2.43266,0.0044 5.60249,8.686758 5.60249,8.686758 0.0781,-8.691168 0.0781,-8.691169 h 2.64942 2.64942 V 57.794066 71.94772 h -2.28799 -2.288 l -5.59972,-8.693412 c -3.07984,-4.781376 -5.69923,-8.695746 -5.82086,-8.6986 -0.12164,-0.0029 -0.22115,3.909182 -0.22115,8.693412 v 8.6986 h -2.65381 -2.65381 z"
     id="path29" /><path
     style="fill:#2c89a0;stroke-width:0.294868"
     d="m 220.47411,71.406009 c -2.62187,-0.933843 -5.25264,-3.521686 -5.97662,-5.87909 -0.47155,-1.53546 -0.70832,-11.274611 -0.33275,-13.686997 0.39301,-2.524333 1.05781,-3.904836 2.64644,-5.495498 1.61735,-1.619405 3.90874,-2.672172 6.30266,-2.89572 5.48766,-0.512445 9.98158,2.49911 11.39635,7.637141 l 0.30447,1.105754 h -2.71824 -2.71824 l -0.36589,-1.011835 c -1.36519,-3.77537 -7.20305,-4.198477 -9.11204,-0.660408 -0.40845,0.757023 -0.52565,1.945717 -0.61547,6.242694 -0.13371,6.397028 0.12123,7.882971 1.59805,9.31436 1.00249,0.971653 1.11721,1.006012 3.35888,1.006012 1.87675,0 2.48027,-0.116168 3.15345,-0.606998 1.14662,-0.836022 2.15942,-2.931682 2.15942,-4.468234 v -1.264425 h -2.65382 -2.65381 v -2.211509 -2.211508 h 5.34944 5.34944 l -0.15691,3.906998 c -0.19084,4.752073 -0.78266,6.607563 -2.7547,8.636643 -1.95998,2.016669 -4.08903,2.887374 -7.34496,3.003818 -2.03622,0.07282 -3.01717,-0.03451 -4.21515,-0.461198 z"
     id="path30" /><path
     style="fill:#5895a3;fill-opacity:1;stroke-width:0.294868"
     d="M 12.384447,35.579615 C 10.63637,35.005469 9.92011,34.562486 8.3203711,33.066118 5.4850632,30.414019 5.0455347,28.536356 5.2314284,19.870167 5.3918724,12.39042 5.611694,11.574998 8.1356795,9.0969355 10.469379,6.805697 12.352146,6.0865486 16.070295,6.0662026 c 2.465658,-0.013492 3.013192,0.083296 4.57045,0.8079261 0.973064,0.4527901 2.278425,1.3139095 2.900804,1.9135985 1.203839,1.1599535 2.640561,3.7085418 2.983389,5.2922098 l 0.207455,0.95832 H 23.947551 21.16271 l -0.711257,-1.400622 c -1.249106,-2.459768 -4.464298,-3.449249 -7.001673,-2.154777 -2.349851,1.198804 -2.698391,2.451984 -2.702985,9.718591 -0.0034,5.373167 0.0373,5.802374 0.669584,7.061502 1.113539,2.217503 3.040105,3.129224 5.64413,2.671007 1.539437,-0.270887 2.552418,-1.073648 3.432802,-2.720407 l 0.73717,-1.378875 2.764385,-8.54e-4 2.764386,-8.53e-4 -0.188968,0.95832 c -0.311731,1.580887 -1.595411,3.922995 -2.869981,5.236352 -1.884746,1.942101 -3.978764,2.75762 -7.335141,2.856684 -1.739685,0.05135 -3.248216,-0.06412 -3.980715,-0.30471 z"
     id="path31" /><path
     style="fill:#5895a3;fill-opacity:1;stroke-width:0.294868"
     d="M 38.568659,35.441289 C 35.42435,34.321009 33.00788,31.939824 32.106293,29.073287 31.487927,27.107233 31.210586,18.695352 31.655205,15.391576 c 0.547802,-4.07048 2.544025,-6.8852319 6.00223,-8.4633747 4.495064,-2.051311 10.560733,-0.686991 13.380218,3.0095447 1.693264,2.219984 1.986316,3.564449 2.122904,9.739454 0.07965,3.600934 -0.0014,6.39917 -0.22196,7.665887 -0.616939,3.542725 -2.414438,5.963712 -5.675447,7.644055 -2.086407,1.075091 -6.329605,1.296729 -8.694491,0.454147 z m 6.330769,-4.996445 c 2.199452,-1.00613 2.707237,-2.789578 2.707477,-9.509231 1.86e-4,-5.201232 -0.212228,-6.7445 -1.090157,-7.92039 -1.146922,-1.536178 -2.045632,-1.957681 -4.174079,-1.957681 -1.74053,0 -2.132178,0.107157 -3.105776,0.849757 -1.711276,1.305253 -2.004933,2.330557 -2.163532,7.553975 -0.15338,5.051511 0.206122,8.28193 1.047006,9.408203 1.645742,2.204292 4.138069,2.783477 6.779061,1.575367 z"
     id="path32" /><path
     style="fill:#5895a3;fill-opacity:1;stroke-width:0.294868"
     d="M 59.41586,21.071567 V 6.1692635 l 2.544974,0.085197 2.544973,0.085197 5.682082,8.8020475 c 3.125145,4.841127 5.827932,8.947898 6.006193,9.126159 0.235568,0.235568 0.32411,-2.18915 0.32411,-8.875765 V 6.1922236 h 2.801244 2.801244 V 21.094527 35.996832 l -2.562679,-0.0852 -2.562678,-0.0852 -5.683515,-8.821186 c -3.125933,-4.851652 -5.820753,-8.958423 -5.988488,-9.126158 -0.210051,-0.210052 -0.304972,2.558439 -0.304972,8.894902 v 9.19988 H 62.217104 59.41586 Z"
     id="path33" /><path
     style="fill:#5895a3;fill-opacity:1;stroke-width:0.294868"
     d="M 94.799995,23.441989 V 11.204976 H 90.966713 87.133432 V 8.6985998 6.1922236 h 10.615241 10.615237 v 2.5063762 2.5063762 h -3.98071 -3.98072 v 12.237013 12.237014 h -2.801241 -2.801244 z"
     id="path34" /><path
     style="fill:#5895a3;fill-opacity:1;stroke-width:0.294868"
     d="M 113.37667,20.935613 V 6.1922236 h 9.73063 9.73064 v 2.5063762 2.5063762 h -6.92939 -6.9294 v 3.538414 3.538413 h 5.89736 5.89736 v 2.506376 2.506376 h -5.89736 -5.89736 v 3.833282 3.833281 h 6.9294 6.92939 v 2.358942 2.358943 h -9.73064 -9.73063 z"
     id="path35" /><path
     style="fill:#5895a3;fill-opacity:1;stroke-width:0.294868"
     d="m 136.96609,35.737292 c 0,-0.130119 1.99036,-3.52237 4.42302,-7.538335 2.43265,-4.015966 4.42301,-7.438396 4.42301,-7.605401 0,-0.167006 -1.85766,-3.396687 -4.12815,-7.177072 -2.27048,-3.7803836 -4.12815,-6.9523629 -4.12815,-7.0488427 0,-0.09648 1.38441,-0.1754177 3.07645,-0.1754177 h 3.07645 l 2.5457,4.7178844 c 1.40014,2.594837 2.63638,4.716881 2.74719,4.715653 0.11082,-0.0012 1.32936,-2.121855 2.70787,-4.712506 l 2.50637,-4.7102748 3.20375,-0.00538 3.20374,-0.00538 -0.42967,0.6634525 c -0.23632,0.3648989 -2.18066,3.6136463 -4.32077,7.2194393 l -3.89109,6.555987 4.58172,7.533728 c 2.51994,4.14355 4.58172,7.600162 4.58172,7.68136 0,0.0812 -1.413,0.109971 -3.13999,0.06394 l -3.13998,-0.08369 -2.83109,-5.066283 c -1.5571,-2.786455 -2.89987,-5.133095 -2.98394,-5.214754 -0.0841,-0.08166 -1.46126,2.23134 -3.06042,5.14 l -2.90756,5.28847 h -3.05809 c -1.68195,0 -3.05809,-0.106462 -3.05809,-0.236578 z"
     id="path36" /><path
     style="fill:#5895a3;fill-opacity:1;stroke-width:0.294868"
     d="M 172.35022,23.441989 V 11.204976 h -3.98071 -3.98072 V 8.6985998 6.1922236 h 10.61524 10.61524 v 2.5063762 2.5063762 h -3.83328 -3.83328 v 12.237013 12.237014 h -2.80124 -2.80125 z"
     id="path37" /><path
     style="fill:#5895a3;fill-opacity:1;stroke-width:0.294868"
     d="M 201.24727,20.935613 V 6.1922236 h 2.80124 2.80125 v 14.7433894 14.74339 h -2.80125 -2.80124 z"
     id="path38" /><path
     style="fill:#5895a3;fill-opacity:1;fill-rule:nonzero;stroke-width:0.294868"
     d="m 217.49585,35.507236 c -1.8595,-0.500048 -4.17018,-1.699759 -5.02376,-2.60835 l -0.60007,-0.638741 1.72458,-1.706577 1.72457,-1.706576 1.62396,0.916507 c 2.76786,1.562084 7.67447,1.727383 9.64408,0.324901 1.22671,-0.8735 1.71884,-2.572264 1.16598,-4.024852 -0.62932,-1.653472 -1.53988,-2.149322 -4.84888,-2.640459 -1.61422,-0.239591 -3.60686,-0.62843 -4.42809,-0.864088 -3.60316,-1.033948 -5.54339,-3.734129 -5.51797,-7.679236 0.0239,-3.710319 1.77736,-6.4380022 5.09594,-7.9272934 4.108,-1.8435601 10.90244,-1.0164493 13.79067,1.6787863 l 0.67051,0.6257077 -1.67743,1.6951224 -1.67744,1.695122 -1.28711,-0.754299 c -1.50278,-0.88069 -4.28073,-1.296577 -6.2612,-0.937365 -1.92443,0.349048 -3.26459,1.825387 -3.26459,3.596314 0,2.335496 1.5038,3.34587 5.74992,3.86325 6.48156,0.789765 8.93049,2.876856 9.22634,7.863124 0.36716,6.188279 -3.7526,9.725368 -11.27022,9.676231 -1.63288,-0.01067 -3.68479,-0.211927 -4.55979,-0.447229 z"
     id="path39" /><path
     style="fill:#5895a3;fill-opacity:1;fill-rule:nonzero;stroke-width:0.294868"
     d="M 201.24727,20.935613 V 6.1922236 h 2.80124 2.80125 v 14.7433894 14.74339 h -2.80125 -2.80124 z"
     id="path40" /><path
     style="fill:#ba8442;fill-opacity:1;fill-rule:nonzero;stroke-width:0.294868"
     d="M 148.7608,57.794087 V 43.640433 h 2.65381 2.65381 v 5.749922 5.749922 h 4.86532 4.86532 v -5.749922 -5.749922 h 2.65381 2.65381 v 14.153654 14.153654 h -2.65381 -2.65381 v -6.04479 -6.044789 h -4.86532 -4.86532 v 6.044789 6.04479 h -2.65381 -2.65381 z"
     id="path41" /><path
     style="fill:#ba8442;fill-opacity:1;fill-rule:nonzero;stroke-width:0.294868"
     d="M 175.2989,57.794087 V 43.640433 h 2.65381 2.65381 v 14.153654 14.153654 h -2.65381 -2.65381 z"
     id="path42" /><path
     style="fill:#ba8442;fill-opacity:1;fill-rule:nonzero;stroke-width:0.294868"
     d="M 186.79875,57.794087 V 43.640433 h 2.33133 2.33133 l 4.7958,7.445412 c 2.63769,4.094976 5.2044,8.042519 5.70381,8.772317 l 0.90802,1.326905 0.14743,-8.6986 0.14744,-8.6986 2.58009,-0.0852 2.58009,-0.0852 v 14.165134 14.165134 h -2.18119 -2.18119 l -1.85033,-2.874961 c -5.50468,-8.552922 -9.50903,-14.522239 -9.74184,-14.522239 -0.14837,0 -0.26317,3.794422 -0.26317,8.6986 v 8.6986 h -2.65381 -2.65381 z"
     id="path43" /><path
     style="fill:#ba8442;fill-opacity:1;fill-rule:nonzero;stroke-width:0.294868"
     d="m 219.61136,70.772166 c -1.93634,-0.977442 -3.77277,-2.797848 -4.6963,-4.655322 -0.48597,-0.977405 -0.54618,-1.8786 -0.54618,-8.175323 0,-7.914122 0.0903,-8.41698 1.92822,-10.742161 0.81485,-1.030872 1.71569,-1.727341 3.14103,-2.428451 1.86156,-0.915679 2.20088,-0.983042 4.95172,-0.983042 2.63768,0 3.13288,0.08823 4.63473,0.825737 2.10542,1.033902 4.13661,3.252132 4.93716,5.39181 0.33307,0.890214 0.60559,1.746285 0.60559,1.902379 0,0.159447 -1.09221,0.283806 -2.49258,0.283806 h -2.49258 l -0.56636,-1.280359 c -0.8046,-1.818917 -2.10584,-2.653045 -4.36298,-2.796769 -1.48478,-0.09454 -2.04936,0.0063 -2.98778,0.533732 -2.11085,1.186364 -2.27076,1.744101 -2.3788,8.296719 -0.10862,6.587797 0.10298,7.845129 1.56666,9.308803 0.92413,0.924136 1.0892,0.976131 3.09884,0.976131 1.3076,0 2.49303,-0.175724 3.08708,-0.457617 1.30851,-0.62093 2.51575,-2.861332 2.51575,-4.668756 v -1.360718 h -2.65382 -2.65381 v -2.211509 -2.211508 h 5.30763 c 4.0541,0 5.30558,0.08705 5.29901,0.368585 -0.005,0.202721 -0.13324,2.072511 -0.28558,4.155088 -0.3225,4.408757 -0.96942,6.199994 -2.92434,8.097179 -2.00358,1.944409 -3.52566,2.510879 -7.10185,2.643075 -2.99232,0.110614 -3.1576,0.08341 -4.93046,-0.811509 z"
     id="path44" /><path
     style="fill:#ba8442;fill-opacity:1;fill-rule:nonzero;stroke-width:0.294868"
     d="m 107.47931,66.002867 v -5.944873 l -4.12815,-8.044883 c -2.27048,-4.424685 -4.128148,-8.118636 -4.128148,-8.20878 0,-0.09014 0.563934,-0.162745 1.253188,-0.161335 1.94529,0.004 4.3493,0.347823 4.3493,0.62208 0,0.401659 5.08727,10.875718 5.27944,10.869719 0.17646,-0.0055 4.81705,-10.003034 4.98125,-10.731416 0.11999,-0.532319 5.66217,-1.127497 5.66217,-0.608065 0,0.08519 -1.85767,3.778524 -4.12815,8.20742 l -4.12815,8.052539 v 5.946234 5.946234 h -2.50637 -2.50638 z"
     id="path45" /><path
     style="fill:#ba8442;fill-opacity:1;fill-rule:nonzero;stroke-width:0.294868"
     d="M 76.813059,57.747978 V 43.548215 l 6.39953,0.204374 c 3.519742,0.112405 6.947793,0.342427 7.617893,0.51116 0.6701,0.168733 1.85628,0.794139 2.635957,1.389792 4.029648,3.078543 4.168412,9.62856 0.263447,12.435414 -2.559856,1.840002 -2.650908,0.935933 0.754754,7.494055 1.662311,3.201036 2.973143,5.869307 2.912958,5.929491 -0.06018,0.06019 -1.300602,0.199349 -2.756484,0.309253 l -2.647057,0.199827 -2.771351,-5.786842 -2.77135,-5.786842 H 84.286018 82.12068 v 5.749922 5.749922 h -2.65381 -2.653811 z m 12.962438,-2.205366 c 2.38839,-1.410857 2.38839,-5.291169 0,-6.702026 -0.629376,-0.371781 -1.59975,-0.482268 -4.235617,-0.482268 h -3.4192 v 3.833281 3.833281 h 3.4192 c 2.635867,0 3.606241,-0.110487 4.235617,-0.482268 z"
     id="path46" /><path
     style="fill:#ba8442;fill-opacity:1;fill-rule:nonzero;stroke-width:0.294868"
     d="M 52.928768,57.794087 V 43.640433 h 9.288336 9.288335 v 2.358942 2.358943 h -6.634525 -6.634525 v 3.390979 3.39098 h 5.762325 5.762325 l -0.08612,2.285225 -0.08612,2.285226 -5.676205,0.08008 -5.676205,0.08008 v 3.673839 3.673839 l 6.560808,0.07936 6.560808,0.07936 0.08612,2.285226 0.08612,2.285225 h -9.300739 -9.300739 z"
     id="path47" /><path
     style="fill:#ba8442;fill-opacity:1;fill-rule:nonzero;stroke-width:0.294868"
     d="m 35.869315,71.314263 c -1.288164,-3.433114 -8.961826,-27.109469 -8.829308,-27.241988 0.09492,-0.09492 1.210713,-0.197745 2.479535,-0.228497 l 2.30695,-0.05591 2.415746,7.775712 c 2.795007,8.996467 3.307107,10.422075 3.664432,10.201236 0.264278,-0.163333 1.479682,-3.873122 4.247339,-12.964196 l 1.526067,-5.012752 2.560271,-0.0852 c 1.40815,-0.04686 2.560272,0.0036 2.560272,0.112204 0,0.10857 -2.06526,6.416535 -4.589466,14.0177 l -4.589466,13.820299 h -1.283773 c -0.706075,0 -1.491817,0.07983 -1.746093,0.177409 -0.309511,0.11877 -0.548319,-0.05179 -0.722506,-0.516019 z"
     id="path48" /><path
     style="fill:#ba8442;fill-opacity:1;fill-rule:nonzero;stroke-width:0.294868"
     d="M 4.5704508,57.794087 V 43.640433 h 9.2883352 9.288336 v 2.358942 2.358943 H 16.512596 9.878071 v 3.390979 3.39098 h 5.602488 5.602488 v 2.358942 2.358943 H 15.480559 9.878071 v 3.685847 3.685847 h 6.634525 6.634526 v 2.358943 2.358942 H 13.858786 4.5704508 Z"
     id="path49" /></svg>
