<?xml version="1.0" encoding="UTF-8"?>
<svg id="Layer_2" data-name="Layer 2" xmlns="http://www.w3.org/2000/svg" xmlns:xlink="http://www.w3.org/1999/xlink" width="245.33" height="92.05" viewBox="0 0 245.33 92.05">
  <g id="Layer_1-2" data-name="Layer 1">
    <!-- CONTEXT IS text converted to paths -->
    <g fill="#c7eaff">
      <!-- C -->
      <path d="M2.42,35.95V12.59c0-9.24,6.72-15.12,16.8-15.12,7.56,0,12.6,3.36,15.12,9.24l-4.62,2.52c-1.68-3.78-4.62-5.88-10.5-5.88-6.72,0-10.92,4.2-10.92,11.76v20.58c0,7.56,4.2,11.76,10.92,11.76,5.88,0,8.82-2.1,10.5-5.88l4.62,2.52c-2.52,5.88-7.56,9.24-15.12,9.24C9.14,53.33,2.42,47.45,2.42,35.95Z"/>
      <!-- O -->
      <path d="M28.84,35.95v-12.6c0-9.24,6.72-15.12,16.8-15.12s16.8,5.88,16.8,15.12v12.6c0,9.24-6.72,15.12-16.8,15.12S28.84,45.19,28.84,35.95ZM56.56,35.95v-12.6c0-7.56-4.2-11.76-10.92-11.76s-10.92,4.2-10.92,11.76v12.6c0,7.56,4.2,11.76,10.92,11.76S56.56,43.51,56.56,35.95Z"/>
      <!-- N -->
      <path d="M69.09,51.07V9.65h5.04l16.38,31.08V9.65h5.88v41.42h-5.04L75.57,18.47v32.6H69.09Z"/>
      <!-- T -->
      <path d="M107.26,51.07V15.53h-9.24V9.65h24.36v5.88h-9.24v35.54H107.26Z"/>
      <!-- E -->
      <path d="M133.91,51.07V9.65h21.84v5.88h-15.96v12.6h14.28v5.88h-14.28v11.18h15.96v5.88H133.91Z"/>
      <!-- X -->
      <path d="M160.66,51.07V9.65h6.72l10.92,15.96L189.22,9.65h6.72v41.42h-5.88V18.89l-9.66,14.28h-3.36l-9.66-14.28v32.18H160.66Z"/>
      <!-- T -->
      <path d="M195.31,51.07V15.53h-9.24V9.65h24.36v5.88h-9.24v35.54H195.31Z"/>
      <!-- I -->
      <path d="M208.35,51.07V9.65h5.88v41.42H208.35Z"/>
      <!-- S -->
      <path d="M233.63,51.07c-9.24,0-15.96-5.88-15.96-15.12v-12.6c0-9.24,6.72-15.12,15.96-15.12,7.56,0,12.6,3.36,15.12,9.24l-4.62,2.52c-1.68-3.78-4.62-5.88-10.5-5.88-6.72,0-10.92,4.2-10.92,11.76v12.6c0,7.56,4.2,11.76,10.92,11.76,5.88,0,8.82-2.1,10.5-5.88l4.62,2.52C246.23,47.71,241.19,51.07,233.63,51.07Z"/>
    </g>

    <!-- EVERYTHING text converted to paths -->
    <g fill="#F4D5C4">
      <!-- E -->
      <path d="M1.17,71.95V30.59h20.8v5.6h-15.2v12h13.6v5.6h-13.6v12.56h15.2v5.6H1.17Z"/>
      <!-- V -->
      <path d="M23.75,71.95V30.59h6.4l9.6,32.8l9.6-32.8h6.4v41.36h-5.6V38.99l-8.8,32.96h-3.2l-8.8-32.96v32.96H23.75Z"/>
      <!-- E -->
      <path d="M47.19,71.95V30.59h20.8v5.6h-15.2v12h13.6v5.6h-13.6v12.56h15.2v5.6H47.19Z"/>
      <!-- R -->
      <path d="M70.83,71.95V30.59h20.8c8.8,0,14.4,5.6,14.4,14.4v8c0,8.8-5.6,14.4-14.4,14.4h-15.2v4.56H70.83ZM76.43,36.19v26.16h15.2c5.6,0,8.8-3.2,8.8-8.8v-8c0-5.6-3.2-8.8-8.8-8.8H76.43Z"/>
      <!-- Y -->
      <path d="M120.3,71.95V30.59h6.4l9.6,20.8V30.59h5.6v41.36h-6.4l-9.6-20.8v20.8H120.3Z"/>
      <!-- T -->
      <path d="M142.76,71.95V36.19h-8.8v-5.6h23.2v5.6h-8.8v35.76H142.76Z"/>
      <!-- H -->
      <path d="M169.5,71.95V30.59h5.6v16.8h15.2V30.59h5.6v41.36h-5.6V53.19h-15.2v18.76H169.5Z"/>
      <!-- I -->
      <path d="M180.99,71.95V30.59h5.6v41.36H180.99Z"/>
      <!-- N -->
      <path d="M208.94,71.95V30.59h5.04l15.6,29.6V30.59h5.6v41.36h-5.04l-15.6-29.6v29.6H208.94Z"/>
      <!-- G -->
      <path d="M235.14,71.95c-8.8,0-15.2-5.6-15.2-14.4v-12c0-8.8,6.4-14.4,15.2-14.4,7.2,0,12,3.2,14.4,8.8l-4.4,2.4c-1.6-3.6-4.4-5.6-10-5.6-6.4,0-10.4,4-10.4,11.2v12c0,7.2,4,11.2,10.4,11.2,6.4,0,10.4-4,10.4-11.2V56.99h-8.8v-5.6h14.4v13.6C250.34,66.35,243.94,71.95,235.14,71.95Z"/>
    </g>
  </g>
</svg>