<?xml version="1.0" encoding="UTF-8"?>
<svg id="Layer_2" data-name="Layer 2" xmlns="http://www.w3.org/2000/svg" viewBox="0 0 331.67 286.69">
  <defs>
    <style>
      .cls-1 {
        stroke-width: 2px;
      }

      .cls-1, .cls-2 {
        fill: none;
        stroke: #000;
        stroke-linecap: round;
        stroke-linejoin: round;
      }
    </style>
  </defs>
  <g id="Layer_1-2" data-name="Layer 1">
    <g id="dSgU3J.tif">
      <g>
        <path class="cls-1" d="M298.49,189.73c.33-6.15,1.81-12.5.79-18.41-3.4-19.6,2.79-36.39,13.13-52.41,4.93-7.63,10.02-15.28,13.87-23.47,7.59-16.12,6.11-29.57-10.74-40.95-11.58-7.82-24.34-12.06-37.48-15.87-12.74-3.69-25.78-5.32-38.92-5.83-13.86-.54-26.46-4.94-38.93-10.5-13.68-6.09-26.97-12.95-41.28-17.76-15.47-5.2-29.87-4.78-44.51,2.16-8.61,4.08-17.4,7.97-26.45,10.89-9.41,3.04-19.25,4.75-28.87,7.17-3.05.77-6.18,1.6-8.95,3.03-5.73,2.95-8.94,7.96-8.95,14.38-.03,15.35-6.97,27.61-16.49,38.91-5.49,6.51-10.6,13.32-16.01,19.9-7.77,9.47-9.7,19.61-5.61,31.47,4.91,14.25,8.82,28.86,13.1,43.33,3.19,10.79,8.52,19.29,19.89,23.61,9.24,3.51,15.19,10.72,17.6,20.74,2.88,12,10.98,20.27,21.44,25.82,15.88,8.43,32.23,15.99,48.3,24.08,10.49,5.28,20.98,10.5,32.43,13.43,14.07,3.61,28.05,2.93,41.33-2.64,10.65-4.47,16.12-13.64,18.57-24.77.85-3.89,1.96-7.79,3.5-11.45,4.36-10.3,13.78-14.08,23.38-17.46,11.45-4.04,23.16-7.46,34.34-12.14,9.69-4.05,17.06-11.19,20.98-21.29.41-1.07.37-2.31.53-3.48v-.5Z"/>
        <path class="cls-2" d="M171.31,269.49c3.33-.5,6.65-1.03,9.98-1.49,15.39-2.11,25.02-10.94,27.75-25.96,2.42-13.33,10.99-19.42,22.6-23.46,10.73-3.73,21.87-6.23,32-11.8,12.24-6.73,19.08-16.25,18.38-30.51-.24-4.82-.74-9.64-.96-14.46-.5-10.61,1.72-20.68,7.01-29.89,5.61-9.76,12.1-19.04,17.26-29.02,4.85-9.36,6.28-19.64-.49-28.73-5.49-7.38-13.41-12.3-21.83-16.01-10.58-4.66-21.5-8.37-32.9-10.49-5.29-.98-10.64-2.4-15.96-2.39-15.83.05-29.81-6.07-43.9-12.09-9.45-4.04-18.98-7.91-28.42-11.99-15.98-6.93-31.48-4.52-46.9,1.99-11.75,4.96-23.53,9.84-35.43,14.4-4.45,1.7-9.31,2.29-13.92,3.61-6.98,2-11.9,6.24-11.9,13.93,0,15.14-7.88,26.51-17.03,37.39-3.34,3.97-6.82,7.85-9.94,11.99-7,9.26-8.96,19.06-4.68,30.44,5.15,13.71,9.24,27.83,13.58,41.83,2.11,6.82,6.38,11.84,12.56,14.85,9.6,4.68,16.12,11.59,18.94,22.02,2.85,10.53,10.36,17.63,19.5,22.28,19.01,9.68,38.5,18.42,57.77,27.59,8.37,3.99,17.46,4.71,26.44,5.97h.5Z"/>
        <path class="cls-1" d="M62.83,114.7c-6.14,7.42-6.36,15.42-2.38,24.23,3.78,8.36,6.51,17.2,9.59,25.87,2.21,6.21,4.97,11.79,10.93,15.55,5.43,3.43,9.21,8.29,11.16,14.82,2.93,9.78,10.4,15.82,19.35,19.93,12.72,5.84,25.49,11.57,38.41,16.93,9.38,3.89,18.93,4.45,28.95,1.25,8.43-2.69,12.78-8.39,14.81-16.16,2.4-9.21,8.47-14.16,17.05-16.95,5.7-1.86,11.43-3.69,16.94-6.02,8.08-3.42,15.12-8.28,17.38-17.41.95-3.84,1.47-8.04.98-11.92-1.85-14.5,3.45-26.68,11-38.46,3.07-4.79,5.33-10.14,7.51-15.42,2.73-6.58.75-12.35-3.92-17.43-7.22-7.85-16.34-13.08-26.03-16.72-8.92-3.36-18.7-4.37-27.8-7.33-10.49-3.42-20.6-8.02-30.99-11.77-7.71-2.79-15.5-5.5-23.45-7.42-9.4-2.26-18.28.88-26.89,4.39-10.35,4.22-20.57,8.75-30.95,12.9-8.14,3.25-14.18,7.68-15.09,17.48-.91,9.81-7.52,17.15-12.84,24.93-1.07,1.56-2.31,3-3.48,4.5l-.25.26Z"/>
        <path class="cls-2" d="M239.06,128.35c-7.99,10.83-12.22,23.13-10.93,36.95.69,7.39-2.07,13.67-8.51,17.32-6.32,3.58-13.13,6.36-19.91,9.03-6.18,2.43-10.9,5.98-12.95,12.54-2.32,7.41-6.95,12.01-14.93,13.59-6.5,1.29-12.89,1.64-18.94-.73-11.44-4.47-22.76-9.3-33.91-14.45-6.49-2.99-11.55-7.96-13.94-14.89-2.18-6.3-6.41-10.92-10.96-15.5-2.24-2.25-4.24-5.03-5.46-7.95-3.28-7.86-5.42-16.25-9.26-23.8-4.04-7.93-3.63-14.66,1.64-21.56,2.26-2.96,3.95-6.34,6.05-9.43,3.28-4.84,4.66-10.29,5.48-15.96.61-4.18,1.84-7.69,6.44-9.56,10.75-4.38,21.35-9.15,31.94-13.9,6.22-2.79,12.6-4.23,19.47-4.02,7.77.24,14.77,3.14,21.94,5.55,12.81,4.3,25.69,8.4,38.38,13.02,13.82,5.04,47.3,18.08,28.37,43.76Z"/>
        <path class="cls-1" d="M143.42,119.55c-5.34,1.69-9.66,5.33-11.43,10.88-1.6,5.01.08,9.72,4.49,12.3,5.04,2.95,7.51,2.79,5.45,12.1-1.5,6.77,2.68,11.24,8.46,12.89,8.97,2.56,21.97-2.05,24.51-13.37,1.48-6.6,3.83-13,5.91-19.46,2.62-8.16-.15-14.49-8.01-17.41-3.05-1.13-3.66-2.23-9.46-2.54-10.07,0-13.59,2.61-19.91,4.6Z"/>
        <path class="cls-2" d="M140.39,33.18c-15.58,2.28-29.08,10.2-43.43,15.86-6.43,2.54-13.26,4.11-19.92,6.07-6.5,1.91-10.26,6.32-10.38,12.97-.2,10.92-5.68,19.47-11.58,27.9-4.23,6.05-8.62,11.98-12.95,17.96-4.25,5.87-4.55,12.4-2.42,18.92,4.09,12.54,8.87,24.86,12.79,37.45,2.17,6.96,5.6,12.57,12.11,15.87,7.43,3.77,12.05,9.65,14.45,17.49,3.89,12.71,13.9,19.43,24.96,24.88,11.2,5.53,22.52,10.83,33.91,15.96,10.12,4.56,20.58,8.52,31.9,7.92,11.69-.62,22.73-3.35,28.87-14.89,1.57-2.94,2.87-6.2,3.46-9.46,1.68-9.33,7.96-14.25,16.07-17.39,8.24-3.19,16.61-6.03,24.92-9.02,14.1-5.07,20.95-14.68,20.95-29.41,0-5.82.21-11.64-.05-17.45-.36-8.13,2.55-15.14,6.51-21.95,4.6-7.91,9.59-15.67,13.36-23.97,6.75-14.82,4.29-22.93-8.87-32.32-12.73-9.08-26.97-14.96-42.4-16.81-20.35-2.45-39.02-9.46-57.37-18.03-10.83-5.06-22.12-8.94-34.38-8.55h-.5Z"/>
        <path class="cls-2" d="M149.37,82.04c-10.99,1.73-20.99,6.28-30.91,10.99-2.55,1.21-5.25,2.32-7.43,4.05-3.11,2.45-4.76,5.62-5.84,9.82-1.74,6.76-5.35,13.04-8.19,19.52-2.09,4.75.54,26.61,8.41,29.15,12.17,3.93,3.53,14.79,13.53,26.19,5.77,6.58,12.21,10.44,19.5,13.88,4.31,2.04,8.84,3.82,13.46,4.95,6.63,1.62,13.31,2.18,19.97-.79,3.27-1.46,5.76-3.42,6.87-6.61,2.21-6.39,7.22-9.25,13.02-11.48,3.74-1.44,7.63-2.84,10.92-5.04,6.03-4.04,8.17-10.31,8.02-17.35-.17-7.79,1.82-14.88,5.98-21.46,1.38-2.19,2.29-4.67,3.54-6.95,3.4-6.18,2.29-11.88-1.49-17.47-8.23-12.17-20.53-18.16-33.94-22.39-9.43-2.97-18.92-5.75-28.44-8.44-2.04-.58-4.31-.39-6.47-.56h-.5Z"/>
        <path class="cls-2" d="M151.86,98.49c-9.71.85-17.97,5.23-25.97,10.42-4.14,2.68-7.1,5.64-7.61,11-.32,3.4-2.33,6.62-3.29,10-1.06,3.71-1.96,7.95,1,10.92,12,12.01,13.5,12.18,11.42,23.47s11.7,17.21,22.95,19.44c2.65.53,5.3,1.31,7.98,1.43,5.09.24,9.59-.71,13.11-5.31,2.22-2.91,5.51-5.71,8.9-6.9,8.61-3.04,11.9-9.23,12.98-17.62.52-4.05,1.26-8.31,3.02-11.92,7.62-15.59,4.2-28.42-11.16-36.31-10.17-5.23-21.16-8.55-32.85-8.61h-.5Z"/>
      </g>
    </g>
  </g>
</svg>